<svg width="512" height="512" viewBox="0 0 512 512" fill="none" xmlns="http://www.w3.org/2000/svg" role="img" aria-labelledby="title desc">
  <title id="title">NexusXVA logo</title>
  <desc id="desc">NexusXVA navy app icon with a white interlocking monogram.</desc>
  <defs>
    <linearGradient id="nexusxva-bg" x1="80" y1="44" x2="442" y2="472" gradientUnits="userSpaceOnUse">
      <stop stop-color="#07598C"/>
      <stop offset="0.52" stop-color="#033E70"/>
      <stop offset="1" stop-color="#011E44"/>
    </linearGradient>
  </defs>
  <rect x="18" y="18" width="476" height="476" rx="96" fill="url(#nexusxva-bg)"/>
  <rect x="34" y="34" width="444" height="444" rx="84" stroke="#0B5D93" stroke-opacity="0.35" stroke-width="10"/>
  <path d="M148 178C148 165.85 157.85 156 170 156H204.7C210.9 156 216.81 158.61 220.98 163.2L256 201.73L291.02 163.2C295.19 158.61 301.1 156 307.3 156H342C354.15 156 364 165.85 364 178V334C364 346.15 354.15 356 342 356H307.3C301.1 356 295.19 353.39 291.02 348.8L256 310.27L220.98 348.8C216.81 353.39 210.9 356 204.7 356H170C157.85 356 148 346.15 148 334V178Z" stroke="#FFFFFF" stroke-width="28" stroke-linejoin="round"/>
  <path d="M176 333L336 179" stroke="#FFFFFF" stroke-width="28" stroke-linecap="round"/>
  <path d="M176 179L336 333" stroke="#FFFFFF" stroke-width="28" stroke-linecap="round"/>
  <path d="M190 204V308L235 256L190 204Z" fill="#043A69"/>
  <path d="M322 204V308L277 256L322 204Z" fill="#043A69"/>
</svg>
